<?xml version="1.0" encoding="UTF-8"?>
<svg width="2870px" height="755px" viewBox="0 0 2870 755" version="1.1" xmlns="http://www.w3.org/2000/svg" xmlns:xlink="http://www.w3.org/1999/xlink">
    <title>logo-with-text-alt</title>
    <g id="Page-1" stroke="none" stroke-width="1" fill="none" fill-rule="evenodd">
        <g id="logo-with-text-alt" transform="translate(7.270909, 1.156371)" fill="#FFFFFF" fill-rule="nonzero">
            <g id="Icon" transform="translate(0.000000, 0.000000)">
                <path d="M701.729091,305.842829 L701.729091,663.843629 C701.729091,713.549257 661.434718,753.843629 611.729091,753.843629 L131.729091,753.843629 C82.0234632,753.843629 41.7290906,713.549257 41.7290906,663.843629 L41.7290906,305.842829 L78.3346495,305.842829 C77.9789565,308.158243 77.7760503,310.522155 77.7363251,312.924969 L77.7290906,313.800711 L77.7290906,664.886548 C77.7290906,693.841462 101.424599,717.368882 130.836102,717.836535 L131.729091,717.843629 L611.729091,717.843629 C641.254233,717.843629 665.244993,694.605759 665.721856,665.76229 L665.729091,664.886548 L665.729091,313.800711 C665.729091,311.095932 665.522322,308.438514 665.12344,305.842829 L701.729091,305.842829 L701.729091,305.842829 Z" id="Combined-Shape"></path>
                <g id="Bottom-Sticks" transform="translate(11.729091, 179.843629)">
                    <rect id="Main-Shape" stroke="#FFFFFF" stroke-width="22" fill-opacity="0" x="4" y="11" width="713" height="118" rx="30"></rect>
                    <polygon id="Slash-04" points="692.000977 1.92675781 717 16.6689453 711.445207 130.776936 582 140"></polygon>
                    <polygon id="Slash-03" points="466.810526 0 581 0 466.810526 140 355 140"></polygon>
                    <polygon id="Slash-02" points="240.810526 0 355 0 240.810526 140 129 140"></polygon>
                    <polygon id="Slash-01" points="14.0672854 9.22130131 129 0 17.2754495 136 0 94.7913704"></polygon>
                </g>
                <g id="Top-Sticks" transform="translate(363.459458, 100.998451) scale(-1, 1) rotate(-175.000000) translate(-363.459458, -100.998451) translate(4.735850, 30.998451)">
                    <rect id="Main-Shape" stroke="#FFFFFF" stroke-width="22" fill-opacity="0" x="4" y="11" width="713" height="118" rx="30"></rect>
                    <polygon id="Slash-04" points="692.362619 1.42861336 717.447216 16.1116969 711.445207 130.776936 582 140"></polygon>
                    <polygon id="Slash-03" points="466.810526 5.44598203e-13 581 5.44598203e-13 466.810526 140 355 140"></polygon>
                    <polygon id="Slash-02" points="240.810526 -4.90172927e-15 355 -4.90172927e-15 240.810526 140 129 140"></polygon>
                    <polygon id="Slash-01" points="14.0672854 9.22130131 129 9.36238449e-13 17.2754495 136 9.31340161e-16 94.7913704"></polygon>
                </g>
                <path d="M520.601282,375.632373 C517.095104,370.528816 510.224866,369.314737 505.248936,372.910845 L384.184152,460.507161 C380.435114,458.542125 376.207552,457.418457 371.715542,457.418457 C369.635042,457.418457 367.620204,457.678616 365.671028,458.124209 L279.010504,382.491548 C274.380874,378.44339 267.439577,379.019062 263.487256,383.772973 L256.358867,392.365622 C252.411943,397.113998 252.973219,404.238867 257.602849,408.287025 L344.274167,483.936292 C344.240887,484.50643 344.191415,485.071031 344.191415,485.646704 C344.191415,499.930577 354.601112,511.747546 368.049257,513.593573 L368.049257,673.84363 L375.392622,673.84363 L375.392622,513.589883 C388.83537,511.738321 399.244167,499.926887 399.244167,485.643014 C399.244167,484.417865 399.139827,483.221315 398.990513,482.034913 L520.061593,394.438597 C525.032127,390.842489 526.221241,383.796036 522.715063,378.698014 L520.601282,375.632373 Z" id="Clockface" stroke="#FFFFFF" stroke-width="2"></path>
            </g>
            <g id="CREW-CALL" transform="translate(940.976162, 251.964723)">
                <g transform="translate(0.000000, 0.000000)">
                    <path d="M117.407227,255.151367 C137.345378,255.151367 155.118815,251.306152 170.727539,243.615723 C186.336263,235.925293 198.91154,225.315348 208.453369,211.785889 C217.995199,198.256429 223.535156,182.747396 225.073242,165.258789 L225.244141,163.464355 L175,163.464355 L174.658203,165.17334 C172.49349,174.914551 168.79069,183.231608 163.549805,190.124512 C158.308919,197.017415 151.800537,202.286784 144.024658,205.932617 C136.248779,209.578451 127.404785,211.401367 117.492676,211.401367 C104.390462,211.401367 92.96875,208.011882 83.2275391,201.23291 C73.4863281,194.453939 65.9667969,184.769694 60.6689453,172.180176 C55.3710938,159.590658 52.722168,144.665527 52.722168,127.404785 L52.722168,127.233887 C52.722168,109.973145 55.3710938,95.119222 60.6689453,82.6721191 C65.9667969,70.2250163 73.4578451,60.6262207 83.1420898,53.8757324 C92.8263346,47.1252441 104.248047,43.75 117.407227,43.75 C127.718099,43.75 136.761475,45.6156413 144.537354,49.3469238 C152.313232,53.0782064 158.707682,58.3048503 163.720703,65.0268555 C168.733724,71.7488607 172.208659,79.6671549 174.145508,88.7817383 L174.829102,91.6870117 L225.073242,91.6870117 L224.902344,90.0634766 C223.364258,72.5748698 217.852783,57.0658366 208.36792,43.536377 C198.883057,30.0069173 186.350505,19.3684896 170.770264,11.6210938 C155.190023,3.87369792 137.402344,0 117.407227,0 C93.4244792,0 72.6460775,5.09847005 55.0720215,15.2954102 C37.4979655,25.4923503 23.9257812,40.0899251 14.3554688,59.0881348 C4.78515625,78.0863444 0,100.830078 0,127.319336 L0,127.490234 C0,153.979492 4.77091471,176.751709 14.3127441,195.806885 C23.8545736,214.862061 37.4267578,229.516602 55.0292969,239.770508 C72.6318359,250.024414 93.4244792,255.151367 117.407227,255.151367 Z" id="Path"></path>
                    <path d="M257.03125,250.878906 L308.642578,250.878906 L308.642578,161.584473 L347.436523,161.584473 C347.892253,161.584473 348.33374,161.584473 348.760986,161.584473 C349.188232,161.584473 349.601237,161.584473 350,161.584473 L395.88623,250.878906 L454.418945,250.878906 L402.46582,153.808594 C416.137695,148.453776 426.989746,139.467367 435.021973,126.849365 C443.054199,114.231364 447.070312,99.8046875 447.070312,83.5693359 L447.070312,83.2275391 C447.070312,66.7073568 443.566895,52.5655111 436.560059,40.802002 C429.553223,29.0384928 419.470215,20.0093587 406.311035,13.7145996 C393.151855,7.41984049 377.315267,4.27246094 358.80127,4.27246094 L257.03125,4.27246094 L257.03125,250.878906 Z M308.642578,122.44873 L308.642578,44.6899414 L352.563477,44.6899414 C365.266927,44.6899414 375.39266,48.1648763 382.940674,55.1147461 C390.488688,62.0646159 394.262695,71.4640299 394.262695,83.3129883 L394.262695,83.6547852 C394.262695,95.7316081 390.631104,105.216471 383.36792,112.109375 C376.104736,119.002279 366.064453,122.44873 353.24707,122.44873 L308.642578,122.44873 Z" id="Shape"></path>
                    <polygon id="Path" points="481.079102 250.878906 644.458008 250.878906 644.458008 208.325195 532.69043 208.325195 532.69043 146.374512 638.134766 146.374512 638.134766 106.04248 532.69043 106.04248 532.69043 46.8261719 644.458008 46.8261719 644.458008 4.27246094 481.079102 4.27246094"></polygon>
                    <polygon id="Path" points="733.752441 250.878906 784.16748 250.878906 829.541016 85.7055664 830.566406 85.7055664 875.939941 250.878906 926.35498 250.878906 991.723633 4.27246094 938.232422 4.27246094 899.182129 180.981445 898.156738 180.981445 852.697754 4.27246094 807.409668 4.27246094 761.950684 180.981445 760.925293 180.981445 721.875 4.27246094 668.383789 4.27246094"></polygon>
                    <path d="M1198.33984,255.151367 C1218.27799,255.151367 1236.05143,251.306152 1251.66016,243.615723 C1267.26888,235.925293 1279.84416,225.315348 1289.38599,211.785889 C1298.92782,198.256429 1304.46777,182.747396 1306.00586,165.258789 L1306.17676,163.464355 L1255.93262,163.464355 L1255.59082,165.17334 C1253.42611,174.914551 1249.72331,183.231608 1244.48242,190.124512 C1239.24154,197.017415 1232.73315,202.286784 1224.95728,205.932617 C1217.1814,209.578451 1208.3374,211.401367 1198.42529,211.401367 C1185.32308,211.401367 1173.90137,208.011882 1164.16016,201.23291 C1154.41895,194.453939 1146.89941,184.769694 1141.60156,172.180176 C1136.30371,159.590658 1133.65479,144.665527 1133.65479,127.404785 L1133.65479,127.233887 C1133.65479,109.973145 1136.30371,95.119222 1141.60156,82.6721191 C1146.89941,70.2250163 1154.39046,60.6262207 1164.07471,53.8757324 C1173.75895,47.1252441 1185.18066,43.75 1198.33984,43.75 C1208.65072,43.75 1217.69409,45.6156413 1225.46997,49.3469238 C1233.24585,53.0782064 1239.6403,58.3048503 1244.65332,65.0268555 C1249.66634,71.7488607 1253.14128,79.6671549 1255.07812,88.7817383 L1255.76172,91.6870117 L1306.00586,91.6870117 L1305.83496,90.0634766 C1304.29688,72.5748698 1298.7854,57.0658366 1289.30054,43.536377 C1279.81567,30.0069173 1267.28312,19.3684896 1251.70288,11.6210938 C1236.12264,3.87369792 1218.33496,0 1198.33984,0 C1174.3571,0 1153.57869,5.09847005 1136.00464,15.2954102 C1118.43058,25.4923503 1104.8584,40.0899251 1095.28809,59.0881348 C1085.71777,78.0863444 1080.93262,100.830078 1080.93262,127.319336 L1080.93262,127.490234 C1080.93262,153.979492 1085.70353,176.751709 1095.24536,195.806885 C1104.78719,214.862061 1118.35938,229.516602 1135.96191,239.770508 C1153.56445,250.024414 1174.3571,255.151367 1198.33984,255.151367 Z" id="Path"></path>
                    <path d="M1313.61084,250.878906 L1367.87109,250.878906 L1429.56543,52.1240234 L1445.28809,52.1240234 L1445.28809,4.27246094 L1399.74365,4.27246094 L1313.61084,250.878906 Z M1359.92432,191.064453 L1500.23193,191.064453 L1487.58545,152.441406 L1372.5708,152.441406 L1359.92432,191.064453 Z M1492.19971,250.878906 L1546.45996,250.878906 L1460.4126,4.27246094 L1430.59082,4.27246094 L1430.59082,52.1240234 L1492.19971,250.878906 Z" id="Shape"></path>
                    <polygon id="Path" points="1571.66748 250.878906 1731.11572 250.878906 1731.11572 208.325195 1623.27881 208.325195 1623.27881 4.27246094 1571.66748 4.27246094"></polygon>
                    <polygon id="Path" points="1761.70654 250.878906 1921.15479 250.878906 1921.15479 208.325195 1813.31787 208.325195 1813.31787 4.27246094 1761.70654 4.27246094"></polygon>
                </g>
            </g>
        </g>
    </g>
</svg>